<svg xmlns="http://www.w3.org/2000/svg" viewBox="0 0 100 100"><defs><path d="M0-3c-2.2-7-5.5-17-5.5-27S-3-46 0-49c3 3 5.5 9 5.5 19S2.2-10 0-3" id="b"/><mask id="a"><path d="M-50-50H50V50H-50z"/><path d="M0-6v-36M4.243-4.243l25.455-25.455M6 0h36M4.243 4.243l25.455 25.455M0 6v36M-4.243 4.243l-25.455 25.455M-6 0h-36m37.757-4.243-25.455-25.455" stroke="#000" stroke-width="1.2" stroke-linecap="round"/><circle r="2"/></mask></defs><g transform="translate(50 50)" mask="url(#a)"><use href="#b"/><use href="#b" transform="rotate(45)"/><use href="#b" transform="rotate(90)"/><use href="#b" transform="rotate(135)"/><use href="#b" transform="rotate(180)"/><use href="#b" transform="rotate(225)"/><use href="#b" transform="rotate(270)"/><use href="#b" transform="rotate(315)"/></g></svg>
